# xmcd
#
# Track frame offsets:
#	150
#	14392
#	29445
#	45450
#	60410
#	77013
#	95013
#	107800
#	124749
#	138147
#	154122
#	168882
#	183513
#	199360
#	214687
#	230231
#	244052
#	262902
#	278106
#	298070
#
# Disc length: 4137 seconds
#
# Revision: 0
# Processed by: cddbd v1.5.2PL0 Copyright (c) Steve Scherf et al.
# Submitted via: EasyCDDAExtractor 16.0.6.1
#
DISCID=1c102714
DTITLE=Συλλογικός δίσκος - Οι χρυσές φωνές 3
DYEAR=2012
DGENRE=Ποικίλη
TTITLE0=Παπάζογλου Νίκος - Κανείς εδώ δεν τραγουδά [Νίκος Παπάζογλου-Τάκης Σιμ
TTITLE0=ώτας]
TTITLE1=Αλεξάνδρα-Τσιτσάνης Βασίλης - Ακρογιαλιές, δειλινά [Βασίλης Τσιτσάνης]
TTITLE2=Μπέλλου Σωτηρία - Πριν το χάραμα μονάχος [Γιάννης Παπαϊωάννου-Χαράλ. Β
TTITLE2=ασιλειάδης]
TTITLE3=Καζαντζίδης Στέλιος - Πέφτουν της βροχής οι στάλες [Βασίλης Τσιτσάνης]
TTITLE4=Μαρινέλλα - Μιά Κυριακή [Γιάννης Σπανός-Λευτέρης Παπαδόπουλος]
TTITLE5=Παπαδοπούλου Πίτσα - Απόψε θέλω να πιω [Αντώνης Βαρδής-Σοφία Αργυροπού
TTITLE5=λου]
TTITLE6=Πουλόπουλος Γιάννης - Αυτοί που μένουν κι αυτοί που φεύγουν [Γ. Ζαμπέτ
TTITLE6=ας-Αλέκος Καγιάντας]
TTITLE7=Γαλάνη Δήμητρα - Θάλασσά μου χωρίς άκρη [Γιάννης Σπανός-Κώστας Ασημακό
TTITLE7=πουλος]
TTITLE8=Γλυκερία - Στου φεγγαριού την αγκαλιά [Θαν. Πολυκανδριώτης-Ιφιγ. Γιανν
TTITLE8=οπούλου]
TTITLE9=Μητσιάς Μανώλης - Ποτέ [Σταμάτης Κραουνάκης-Λίνα Νικολακοπούλου]
TTITLE10=Φαραντούρη Μαρία - Του μικρού βοριά [Μίκης Θεοδωράκης-Οδυσσέας Ελύτης
TTITLE10=]
TTITLE11=Αρλέτα - Έρχεται κρύο [Λάκης Παπαδόπουλος-Κυριάκος Ντούμος]
TTITLE12=Μοσχολιού Βίκυ - Κάτω απ' τη μαρκίζα [Γιάννης Σπανός-Μάνος Ελευθερίου
TTITLE12=]
TTITLE13=Καλογιάννης Αντώνης - Μικραίνει ο κόσμος [Σταύρος Κουγιουμτζής-Τάσος 
TTITLE13=Κόρφης]
TTITLE14=Τσανακλίδου Τάνια - Οι μοίρες [Σταμάτης Κραουνάκης-Λίνα Νικολακοπούλο
TTITLE14=υ]
TTITLE15=Λέκκας Βασίλης - Δεν ξέρω τι μού γίνεται [Γιάννης Σπάθας-Λίνα Νικολακ
TTITLE15=οπούλου]
TTITLE16=Βενετσάνου Νένα - Άρνησις (Στο περιγιάλι το κρυφό)[Μ. Θεοδωράκης-Γ. Σ
TTITLE16=εφέρης]
TTITLE17=Βάνου Τζένη - Η σκλάβα [Γιώργος Μουζάκης-Γιώργος Γιαννακόπουλος]
TTITLE18=Δήμου Ελένη - Ας ερχόσουν για λίγο [Μιχάλης Σουγιούλ-Μίμης Τραϊφόρος]
TTITLE19=Ζορμπαλά Μαργαρίτα - Κάποιο μυστικό (1935)[Κ. Γιαννίδης-Β.Σπυρόπουλος
TTITLE19=/Π.Παπαδούκας]
EXTD=
EXTT0=
EXTT1=
EXTT2=
EXTT3=
EXTT4=
EXTT5=
EXTT6=
EXTT7=
EXTT8=
EXTT9=
EXTT10=
EXTT11=
EXTT12=
EXTT13=
EXTT14=
EXTT15=
EXTT16=
EXTT17=
EXTT18=
EXTT19=
PLAYORDER=
